<svg width="140" height="28" viewBox="0 0 140 28" fill="none" xmlns="http://www.w3.org/2000/svg">
  <path d="M8.46165 14.8367C8.46165 16.3705 7.72586 17.3466 6.25426 17.3466C4.75437 17.3466 3.99028 16.3426 3.96198 14.6972H0C0 18.6295 2.60359 20.8327 6.31086 20.8327C9.96154 20.8327 12.4519 18.6853 12.4519 14.8367V1.17131H8.46165V14.8367Z" fill="#E6E1E1"/>
  <path d="M32.2141 12.9123C32.2141 8.03187 28.6766 4.93625 24.1486 4.93625C19.6206 4.93625 16.0832 8.03187 16.0832 12.9123C16.0832 17.7649 19.5074 20.8884 24.0354 20.8884C28.5917 20.8884 32.2141 17.7649 32.2141 12.9123ZM20.1017 12.9123C20.1017 9.81673 21.9978 8.33864 24.092 8.33864C26.1862 8.33864 28.1389 9.81673 28.1389 12.9123C28.1389 15.9801 26.1296 17.4861 24.0354 17.4861C21.9129 17.4861 20.1017 15.9801 20.1017 12.9123Z" fill="#E6E1E1"/>
  <path d="M47.2893 16.2311C47.1761 10.5697 38.488 12.3267 38.488 9.50996C38.488 8.61753 39.2521 8.03187 40.7237 8.03187C42.2802 8.03187 43.2424 8.84064 43.3556 10.0398H47.1478C46.9214 6.97211 44.6291 4.93625 40.8369 4.93625C36.9598 4.93625 34.6392 7 34.6392 9.56574C34.6392 15.2271 43.4971 13.4701 43.4971 16.2311C43.4971 17.1235 42.6481 17.8207 41.0916 17.8207C39.5068 17.8207 38.4031 16.9283 38.2616 15.757H34.2713C34.4411 18.6295 37.1862 20.8884 41.1199 20.8884C44.9404 20.8884 47.2893 18.8805 47.2893 16.2311Z" fill="#E6E1E1"/>
  <path d="M57.2769 8.14342C59.3145 8.14342 60.9559 9.42629 61.0125 11.4621H53.5696C53.8809 9.34263 55.3808 8.14342 57.2769 8.14342ZM64.7197 15.7849H60.4465C59.9371 16.8167 59.0032 17.6534 57.3052 17.6534C55.3242 17.6534 53.7394 16.3705 53.5413 14.0837H65.0027C65.0876 13.5817 65.1159 13.0797 65.1159 12.5777C65.1159 7.97609 61.9181 4.93625 57.3901 4.93625C52.7489 4.93625 49.5227 8.03187 49.5227 12.9123C49.5227 17.7649 52.8338 20.8884 57.3901 20.8884C61.2672 20.8884 63.8708 18.6295 64.7197 15.7849Z" fill="#E6E1E1"/>
  <path d="M71.9698 7.41833V5.18725H68.0078V28H71.9698V18.4343C72.932 19.6892 74.6866 20.8884 77.1487 20.8884C81.1673 20.8884 84.3085 17.6813 84.3085 12.8566C84.3085 8.03187 81.1673 4.93625 77.1487 4.93625C74.7149 4.93625 72.9037 6.10757 71.9698 7.41833ZM80.2617 12.8566C80.2617 15.7849 78.2524 17.4582 76.1016 17.4582C73.9791 17.4582 71.9698 15.8406 71.9698 12.9123C71.9698 9.98406 73.9791 8.36653 76.1016 8.36653C78.2524 8.36653 80.2617 9.92829 80.2617 12.8566Z" fill="#E6E1E1"/>
  <path d="M87.1876 20.6374H91.1496V12.1036C91.1496 9.62151 92.5363 8.28287 94.6871 8.28287C96.7813 8.28287 98.168 9.62151 98.168 12.1036V20.6374H102.13V11.5737C102.13 7.30677 99.5546 4.96414 96.0172 4.96414C93.923 4.96414 92.1684 5.8008 91.1496 7.11155V0H87.1876V20.6374Z" fill="#E6E1E1"/>
  <path d="M106.973 25.4622H123.585V21.753H106.973V25.4622Z" fill="#4545E5"/>
  <path d="M128.821 16.9562H133.831L140 10.7092L133.831 4.46216H128.821L135.019 10.7092L128.821 16.9562Z" fill="#4545E5"/>
</svg>
