<svg width="22" height="23" viewBox="0 0 22 23" fill="none" xmlns="http://www.w3.org/2000/svg">
<g clip-path="url(#clip0)">
<path d="M11 1.21552C4.9225 1.21552 0 6.05552 0 12.0249C0 16.8016 3.1515 20.8524 7.52125 22.2805C8.07125 22.3823 8.27292 22.0477 8.27292 21.7608C8.27292 21.5041 8.26375 20.8239 8.25917 19.9229C5.19933 20.5746 4.554 18.4727 4.554 18.4727C4.0535 17.2251 3.33025 16.8914 3.33025 16.8914C2.33383 16.2214 3.40725 16.2351 3.40725 16.2351C4.51183 16.3103 5.09208 17.3489 5.09208 17.3489C6.07292 19.0016 7.667 18.524 8.29583 18.2481C8.39483 17.5487 8.67808 17.0729 8.9925 16.8025C6.54958 16.5321 3.982 15.6026 3.982 11.4611C3.982 10.2814 4.40825 9.31702 5.11408 8.56077C4.99033 8.2876 4.61908 7.18852 5.21033 5.69985C5.21033 5.69985 6.13158 5.41018 8.23533 6.8081C9.11533 6.56793 10.0503 6.44877 10.9853 6.44327C11.9203 6.44877 12.8553 6.56793 13.7353 6.8081C15.8253 5.41018 16.7466 5.69985 16.7466 5.69985C17.3378 7.18852 16.9666 8.2876 16.8566 8.56077C17.5578 9.31702 17.9841 10.2814 17.9841 11.4611C17.9841 15.6136 15.4128 16.5275 12.9653 16.7934C13.3503 17.1179 13.7078 17.7806 13.7078 18.7935C13.7078 20.24 13.6941 21.4024 13.6941 21.7534C13.6941 22.0367 13.8866 22.3749 14.4503 22.2668C18.8512 20.8478 22 16.7943 22 12.0249C22 6.05552 17.0748 1.21552 11 1.21552Z" fill="#E6E1E1"/>
</g>
<defs>
<clipPath id="clip0">
<rect y="0.757141" width="22" height="22" fill="white"/>
</clipPath>
</defs>
</svg>
