<svg width="20" height="21" viewBox="0 0 20 21" fill="none" xmlns="http://www.w3.org/2000/svg">
<g clip-path="url(#clip0)">
<path fill-rule="evenodd" clip-rule="evenodd" d="M0 3.15881C0 1.83297 1.07583 0.757141 2.40167 0.757141C3.72667 0.757141 4.8025 1.83297 4.80333 3.15881C4.80333 4.48464 3.7275 5.58298 2.40167 5.58298C1.07583 5.58298 0 4.48464 0 3.15881ZM19.9951 20.7572V20.7563H20.0001V13.4213C20.0001 9.83301 19.2276 7.06885 15.0326 7.06885C13.0159 7.06885 11.6626 8.17551 11.1101 9.22468H11.0517V7.40385H7.07422V20.7563H11.2159V14.1447C11.2159 12.4038 11.5459 10.7205 13.7017 10.7205C15.8259 10.7205 15.8576 12.7072 15.8576 14.2563V20.7572H19.9951ZM0.329956 7.4046H4.47662V20.7571H0.329956V7.4046Z" fill="#E6E1E1"/>
</g>
<defs>
<clipPath id="clip0">
<rect y="0.757141" width="20" height="20" fill="white"/>
</clipPath>
</defs>
</svg>
