<svg width="908" height="881" viewBox="0 0 908 881" fill="none" xmlns="http://www.w3.org/2000/svg">
<g filter="url(#filter0_d)">
<path fill-rule="evenodd" clip-rule="evenodd" d="M627.194 -187.716C706.782 -183.912 790.648 -213.081 859.966 -173.807C932.552 -132.681 968.774 -51.7898 1002.07 24.6819C1038.76 108.962 1083.78 198.248 1060.69 287.221C1037.11 378.112 953.851 436.221 880.19 494.494C803.265 555.35 724.768 640.334 627.194 630.166C530.238 620.063 479.076 514.055 409.824 445.48C352.936 389.146 283.134 342.329 259.337 265.901C235.695 189.97 262.083 111.299 281.784 34.2516C302.964 -48.576 305.723 -150.627 377.666 -196.859C449.434 -242.978 541.972 -191.79 627.194 -187.716Z" fill="#4545E5"/>
</g>
<defs>
<filter id="filter0_d" x="0" y="-466" width="1317" height="1347" filterUnits="userSpaceOnUse" color-interpolation-filters="sRGB">
<feFlood flood-opacity="0" result="BackgroundImageFix"/>
<feColorMatrix in="SourceAlpha" type="matrix" values="0 0 0 0 0 0 0 0 0 0 0 0 0 0 0 0 0 0 127 0"/>
<feOffset/>
<feGaussianBlur stdDeviation="125"/>
<feColorMatrix type="matrix" values="0 0 0 0 0.270588 0 0 0 0 0.270588 0 0 0 0 0.898039 0 0 0 0.5 0"/>
<feBlend mode="normal" in2="BackgroundImageFix" result="effect1_dropShadow"/>
<feBlend mode="normal" in="SourceGraphic" in2="effect1_dropShadow" result="shape"/>
</filter>
</defs>
</svg>
