<svg xmlns="http://www.w3.org/2000/svg" xmlns:xlink="http://www.w3.org/1999/xlink" width="246" height="193" viewBox="0 0 246 193">
  <defs>
    <filter id="Path_145" x="0" y="0" width="113.449" height="178.356" filterUnits="userSpaceOnUse">
      <feOffset dy="1" input="SourceAlpha"/>
      <feGaussianBlur stdDeviation="1" result="blur"/>
      <feFlood flood-opacity="0.302"/>
      <feComposite operator="in" in2="blur"/>
      <feComposite in="SourceGraphic"/>
    </filter>
    <filter id="Rectangle_60" x="61.652" y="152.399" width="184.348" height="40.601" filterUnits="userSpaceOnUse">
      <feOffset dy="1" input="SourceAlpha"/>
      <feGaussianBlur stdDeviation="1" result="blur-2"/>
      <feFlood flood-opacity="0.302"/>
      <feComposite operator="in" in2="blur-2"/>
      <feComposite in="SourceGraphic"/>
    </filter>
  </defs>
  <g id="Group_13" data-name="Group 13" transform="translate(3 2)">
    <g transform="matrix(1, 0, 0, 1, -3, -2)" filter="url(#Path_145)">
      <path id="Path_145-2" data-name="Path 145" d="M247.481,133.948c-6.432,3.247-12.6,8.77-15.536,15.95l-.534,1.288c-.66,1.928-.66,3.189.012,5.842l.522,1.583a18.792,18.792,0,0,0,4.581,6.317q25.684,25.547,51.287,51.17c3.5,3.5,3.279,3.5-.153,7.1-2.669,2.8-7.9,7.563-10.383,10.131-4.5,4.634-6.274,6.616-10.994,10.951-10.015,9.207-19.284,19.143-29.08,28.557a19.064,19.064,0,0,0-5.257,7.735c-.353,1.2-.538,1.652-.668,2.3a9.869,9.869,0,0,0,.134,4.47,9.024,9.024,0,0,0,.707,1.943c1.713,3.481,7.43,8.759,11.835,12.546,5.1,4.381,10.6,4.45,15.836.307a51.376,51.376,0,0,0,4.366-4.013q21.606-21.5,43.177-43.028c8.963-8.939,17.994-17.813,26.83-26.875,5.518-5.665,5.552-11.228.415-17.223a87.025,87.025,0,0,0-6.086-6.221c-24.779-23.567-63.045-63.961-69.918-69.155-.077-.1-4.182-3.2-7.331-2.752A9.55,9.55,0,0,0,247.481,133.948Z" transform="translate(-227.92 -130.83)" fill="#fff"/>
    </g>
    <g transform="matrix(1, 0, 0, 1, -3, -2)" filter="url(#Rectangle_60)">
      <rect id="Rectangle_60-2" data-name="Rectangle 60" width="178.348" height="34.601" rx="2.995" transform="translate(64.65 154.4)" fill="#fff"/>
    </g>
  </g>
</svg>
